<svg xmlns="http://www.w3.org/2000/svg" width="1200" height="760" viewBox="0 0 1200 760">
  <defs>
    <linearGradient id="bg" x1="0" y1="0" x2="0" y2="1">
      <stop offset="0%" stop-color="#0f1420"/>
      <stop offset="100%" stop-color="#171e2e"/>
    </linearGradient>
    <linearGradient id="card" x1="0" y1="0" x2="0" y2="1">
      <stop offset="0%" stop-color="#1e2738"/>
      <stop offset="100%" stop-color="#171e2e"/>
    </linearGradient>
  </defs>

  <!-- Background -->
  <rect width="1200" height="760" fill="url(#bg)"/>

  <!-- Topbar -->
  <rect x="0" y="0" width="1200" height="64" fill="#171e2e"/>
  <rect x="0" y="64" width="1200" height="1" fill="#2a3550"/>
  <text x="24" y="40" font-family="Segoe UI, sans-serif" font-size="20" font-weight="700" fill="#e6ebf5">Crypto Income Assistant</text>
  <!-- Tabs -->
  <rect x="820" y="16" width="90" height="32" rx="8" fill="#60a5fa"/>
  <text x="865" y="37" font-family="Segoe UI, sans-serif" font-size="13" font-weight="600" fill="#0b1220" text-anchor="middle">Portfolio</text>
  <rect x="918" y="16" width="80" height="32" rx="8" fill="none" stroke="#2a3550"/>
  <text x="958" y="37" font-family="Segoe UI, sans-serif" font-size="13" fill="#8b96ab" text-anchor="middle">Scanner</text>
  <rect x="1006" y="16" width="70" height="32" rx="8" fill="none" stroke="#2a3550"/>
  <text x="1041" y="37" font-family="Segoe UI, sans-serif" font-size="13" fill="#8b96ab" text-anchor="middle">Trades</text>
  <rect x="1084" y="16" width="80" height="32" rx="8" fill="none" stroke="#2a3550"/>
  <text x="1124" y="37" font-family="Segoe UI, sans-serif" font-size="13" fill="#8b96ab" text-anchor="middle">Settings</text>

  <!-- Summary cards -->
  <rect x="24" y="84" width="270" height="76" rx="10" fill="url(#card)" stroke="#2a3550"/>
  <text x="40" y="108" font-family="Segoe UI, sans-serif" font-size="12" fill="#8b96ab">Invested</text>
  <text x="40" y="140" font-family="Segoe UI, sans-serif" font-size="20" font-weight="600" fill="#e6ebf5">$629.81</text>

  <rect x="310" y="84" width="270" height="76" rx="10" fill="url(#card)" stroke="#2a3550"/>
  <text x="326" y="108" font-family="Segoe UI, sans-serif" font-size="12" fill="#8b96ab">Current value</text>
  <text x="326" y="140" font-family="Segoe UI, sans-serif" font-size="20" font-weight="600" fill="#e6ebf5">$235.72</text>

  <rect x="596" y="84" width="270" height="76" rx="10" fill="url(#card)" stroke="#2a3550"/>
  <text x="612" y="108" font-family="Segoe UI, sans-serif" font-size="12" fill="#8b96ab">Unrealized P/L</text>
  <text x="612" y="140" font-family="Segoe UI, sans-serif" font-size="20" font-weight="600" fill="#f87171">-$394.09 (-62.6%)</text>

  <rect x="882" y="84" width="270" height="76" rx="10" fill="url(#card)" stroke="#2a3550"/>
  <text x="898" y="108" font-family="Segoe UI, sans-serif" font-size="12" fill="#8b96ab">Realized P/L</text>
  <text x="898" y="140" font-family="Segoe UI, sans-serif" font-size="20" font-weight="600" fill="#22c55e">+$23.94</text>

  <!-- Positions table -->
  <rect x="24" y="180" width="1152" height="560" rx="12" fill="url(#card)" stroke="#2a3550"/>
  <text x="40" y="210" font-family="Segoe UI, sans-serif" font-size="16" font-weight="700" fill="#e6ebf5">Your positions</text>

  <!-- Table header -->
  <text x="40" y="250" font-family="Segoe UI, sans-serif" font-size="12" fill="#8b96ab">Symbol</text>
  <text x="140" y="250" font-family="Segoe UI, sans-serif" font-size="12" fill="#8b96ab">Type</text>
  <text x="240" y="250" font-family="Segoe UI, sans-serif" font-size="12" fill="#8b96ab">Qty</text>
  <text x="340" y="250" font-family="Segoe UI, sans-serif" font-size="12" fill="#8b96ab">Avg buy</text>
  <text x="460" y="250" font-family="Segoe UI, sans-serif" font-size="12" fill="#8b96ab">Price</text>
  <text x="580" y="250" font-family="Segoe UI, sans-serif" font-size="12" fill="#8b96ab">Value</text>
  <text x="700" y="250" font-family="Segoe UI, sans-serif" font-size="12" fill="#8b96ab">PnL $</text>
  <text x="820" y="250" font-family="Segoe UI, sans-serif" font-size="12" fill="#8b96ab">PnL %</text>
  <text x="940" y="250" font-family="Segoe UI, sans-serif" font-size="12" fill="#8b96ab">Flags</text>
  <line x1="40" y1="262" x2="1160" y2="262" stroke="#2a3550"/>

  <!-- Row 1: XRP -->
  <text x="40" y="292" font-family="Segoe UI, sans-serif" font-size="14" font-weight="600" fill="#e6ebf5">XRP</text>
  <rect x="136" y="278" width="52" height="20" rx="10" fill="#1e3a8a"/>
  <text x="162" y="292" font-family="Segoe UI, sans-serif" font-size="11" fill="#93c5fd" text-anchor="middle">core</text>
  <text x="240" y="292" font-family="Segoe UI, sans-serif" font-size="14" fill="#e6ebf5">25.067</text>
  <text x="340" y="292" font-family="Segoe UI, sans-serif" font-size="14" fill="#e6ebf5">$2.8139</text>
  <text x="460" y="292" font-family="Segoe UI, sans-serif" font-size="14" fill="#e6ebf5">$1.3859</text>
  <text x="580" y="292" font-family="Segoe UI, sans-serif" font-size="14" fill="#e6ebf5">$34.74</text>
  <text x="700" y="292" font-family="Segoe UI, sans-serif" font-size="14" fill="#f87171">-$226.86</text>
  <text x="820" y="292" font-family="Segoe UI, sans-serif" font-size="14" fill="#f87171">-50.7%</text>
  <line x1="40" y1="306" x2="1160" y2="306" stroke="#2a3550"/>

  <!-- Row 2: POL -->
  <text x="40" y="336" font-family="Segoe UI, sans-serif" font-size="14" font-weight="600" fill="#e6ebf5">POL</text>
  <rect x="136" y="322" width="52" height="20" rx="10" fill="#7c2d12"/>
  <text x="162" y="336" font-family="Segoe UI, sans-serif" font-size="11" fill="#fdba74" text-anchor="middle">meme</text>
  <text x="240" y="336" font-family="Segoe UI, sans-serif" font-size="14" fill="#e6ebf5">330.076</text>
  <text x="340" y="336" font-family="Segoe UI, sans-serif" font-size="14" fill="#e6ebf5">$0.2319</text>
  <text x="460" y="336" font-family="Segoe UI, sans-serif" font-size="14" fill="#e6ebf5">$0.0889</text>
  <text x="580" y="336" font-family="Segoe UI, sans-serif" font-size="14" fill="#e6ebf5">$29.34</text>
  <text x="700" y="336" font-family="Segoe UI, sans-serif" font-size="14" fill="#f87171">-$58.57</text>
  <text x="820" y="336" font-family="Segoe UI, sans-serif" font-size="14" fill="#f87171">-61.7%</text>
  <rect x="936" y="322" width="80" height="20" rx="8" fill="#7f1d1d"/>
  <text x="976" y="336" font-family="Segoe UI, sans-serif" font-size="11" fill="#fca5a5" text-anchor="middle">DEEP-LOSS</text>
  <line x1="40" y1="350" x2="1160" y2="350" stroke="#2a3550"/>

  <!-- Row 3: WLD -->
  <text x="40" y="380" font-family="Segoe UI, sans-serif" font-size="14" font-weight="600" fill="#e6ebf5">WLD</text>
  <rect x="136" y="366" width="52" height="20" rx="10" fill="#7c2d12"/>
  <text x="162" y="380" font-family="Segoe UI, sans-serif" font-size="11" fill="#fdba74" text-anchor="middle">meme</text>
  <text x="240" y="380" font-family="Segoe UI, sans-serif" font-size="14" fill="#e6ebf5">40.000</text>
  <text x="340" y="380" font-family="Segoe UI, sans-serif" font-size="14" fill="#e6ebf5">$1.7928</text>
  <text x="460" y="380" font-family="Segoe UI, sans-serif" font-size="14" fill="#e6ebf5">$0.3940</text>
  <text x="580" y="380" font-family="Segoe UI, sans-serif" font-size="14" fill="#e6ebf5">$15.76</text>
  <text x="700" y="380" font-family="Segoe UI, sans-serif" font-size="14" fill="#f87171">-$55.95</text>
  <text x="820" y="380" font-family="Segoe UI, sans-serif" font-size="14" fill="#f87171">-78.0%</text>
  <rect x="936" y="366" width="80" height="20" rx="8" fill="#7f1d1d"/>
  <text x="976" y="380" font-family="Segoe UI, sans-serif" font-size="11" fill="#fca5a5" text-anchor="middle">DEEP-LOSS</text>
  <line x1="40" y1="394" x2="1160" y2="394" stroke="#2a3550"/>

  <!-- Row 4: DOGE -->
  <text x="40" y="424" font-family="Segoe UI, sans-serif" font-size="14" font-weight="600" fill="#e6ebf5">DOGE</text>
  <rect x="136" y="410" width="52" height="20" rx="10" fill="#7c2d12"/>
  <text x="162" y="424" font-family="Segoe UI, sans-serif" font-size="11" fill="#fdba74" text-anchor="middle">meme</text>
  <text x="240" y="424" font-family="Segoe UI, sans-serif" font-size="14" fill="#e6ebf5">1.000</text>
  <text x="340" y="424" font-family="Segoe UI, sans-serif" font-size="14" fill="#e6ebf5">$0.2570</text>
  <text x="460" y="424" font-family="Segoe UI, sans-serif" font-size="14" fill="#e6ebf5">$0.0844</text>
  <text x="580" y="424" font-family="Segoe UI, sans-serif" font-size="14" fill="#e6ebf5">$0.08</text>
  <text x="700" y="424" font-family="Segoe UI, sans-serif" font-size="14" fill="#f87171">-$25.62</text>
  <text x="820" y="424" font-family="Segoe UI, sans-serif" font-size="14" fill="#f87171">-67.2%</text>
  <rect x="936" y="410" width="80" height="20" rx="8" fill="#7f1d1d"/>
  <text x="976" y="424" font-family="Segoe UI, sans-serif" font-size="11" fill="#fca5a5" text-anchor="middle">DEEP-LOSS</text>
  <line x1="40" y1="438" x2="1160" y2="438" stroke="#2a3550"/>

  <!-- Row 5: USDT -->
  <text x="40" y="468" font-family="Segoe UI, sans-serif" font-size="14" font-weight="600" fill="#e6ebf5">USDT</text>
  <rect x="136" y="454" width="52" height="20" rx="10" fill="#14532d"/>
  <text x="162" y="468" font-family="Segoe UI, sans-serif" font-size="11" fill="#86efac" text-anchor="middle">stable</text>
  <text x="240" y="468" font-family="Segoe UI, sans-serif" font-size="14" fill="#e6ebf5">148.990</text>
  <text x="340" y="468" font-family="Segoe UI, sans-serif" font-size="14" fill="#e6ebf5">$1.0000</text>
  <text x="460" y="468" font-family="Segoe UI, sans-serif" font-size="14" fill="#e6ebf5">$1.0000</text>
  <text x="580" y="468" font-family="Segoe UI, sans-serif" font-size="14" fill="#e6ebf5">$148.99</text>
  <text x="700" y="468" font-family="Segoe UI, sans-serif" font-size="14" fill="#22c55e">$0.00</text>
  <text x="820" y="468" font-family="Segoe UI, sans-serif" font-size="14" fill="#22c55e">0.0%</text>
  <rect x="936" y="454" width="60" height="20" rx="8" fill="#3f3f46"/>
  <text x="966" y="468" font-family="Segoe UI, sans-serif" font-size="11" fill="#a1a1aa" text-anchor="middle">PROFIT</text>
  <line x1="40" y1="482" x2="1160" y2="482" stroke="#2a3550"/>

  <!-- Row 6: BNB -->
  <text x="40" y="512" font-family="Segoe UI, sans-serif" font-size="14" font-weight="600" fill="#e6ebf5">BNB</text>
  <rect x="136" y="498" width="52" height="20" rx="10" fill="#3f3f46"/>
  <text x="162" y="512" font-family="Segoe UI, sans-serif" font-size="11" fill="#d4d4d8" text-anchor="middle">other</text>
  <text x="240" y="512" font-family="Segoe UI, sans-serif" font-size="14" fill="#e6ebf5">0.00002</text>
  <text x="340" y="512" font-family="Segoe UI, sans-serif" font-size="14" fill="#e6ebf5">$743.36</text>
  <text x="460" y="512" font-family="Segoe UI, sans-serif" font-size="14" fill="#e6ebf5">$679.11</text>
  <text x="580" y="512" font-family="Segoe UI, sans-serif" font-size="14" fill="#e6ebf5">$0.01</text>
  <text x="700" y="512" font-family="Segoe UI, sans-serif" font-size="14" fill="#f87171">-$0.00</text>
  <text x="820" y="512" font-family="Segoe UI, sans-serif" font-size="14" fill="#f87171">-8.6%</text>
  <line x1="40" y1="526" x2="1160" y2="526" stroke="#2a3550"/>

  <!-- Row 7: DOT -->
  <text x="40" y="556" font-family="Segoe UI, sans-serif" font-size="14" font-weight="600" fill="#e6ebf5">DOT</text>
  <rect x="136" y="542" width="52" height="20" rx="10" fill="#7c2d12"/>
  <text x="162" y="556" font-family="Segoe UI, sans-serif" font-size="11" fill="#fdba74" text-anchor="middle">meme</text>
  <text x="240" y="556" font-family="Segoe UI, sans-serif" font-size="14" fill="#e6ebf5">4.309</text>
  <text x="340" y="556" font-family="Segoe UI, sans-serif" font-size="14" fill="#e6ebf5">$3.8574</text>
  <text x="460" y="556" font-family="Segoe UI, sans-serif" font-size="14" fill="#e6ebf5">$0.9080</text>
  <text x="580" y="556" font-family="Segoe UI, sans-serif" font-size="14" fill="#e6ebf5">$3.91</text>
  <text x="700" y="556" font-family="Segoe UI, sans-serif" font-size="14" fill="#f87171">-$12.71</text>
  <text x="820" y="556" font-family="Segoe UI, sans-serif" font-size="14" fill="#f87171">-76.5%</text>
  <rect x="936" y="542" width="80" height="20" rx="8" fill="#7f1d1d"/>
  <text x="976" y="556" font-family="Segoe UI, sans-serif" font-size="11" fill="#fca5a5" text-anchor="middle">DEEP-LOSS</text>
  <line x1="40" y1="570" x2="1160" y2="570" stroke="#2a3550"/>

  <!-- Row 8: ADA -->
  <text x="40" y="600" font-family="Segoe UI, sans-serif" font-size="14" font-weight="600" fill="#e6ebf5">ADA</text>
  <rect x="136" y="586" width="52" height="20" rx="10" fill="#7c2d12"/>
  <text x="162" y="600" font-family="Segoe UI, sans-serif" font-size="11" fill="#fdba74" text-anchor="middle">meme</text>
  <text x="240" y="600" font-family="Segoe UI, sans-serif" font-size="14" fill="#e6ebf5">10.100</text>
  <text x="340" y="600" font-family="Segoe UI, sans-serif" font-size="14" fill="#e6ebf5">$0.8300</text>
  <text x="460" y="600" font-family="Segoe UI, sans-serif" font-size="14" fill="#e6ebf5">$0.2194</text>
  <text x="580" y="600" font-family="Segoe UI, sans-serif" font-size="14" fill="#e6ebf5">$2.22</text>
  <text x="700" y="600" font-family="Segoe UI, sans-serif" font-size="14" fill="#f87171">-$14.38</text>
  <text x="820" y="600" font-family="Segoe UI, sans-serif" font-size="14" fill="#f87171">-73.6%</text>
  <rect x="936" y="586" width="80" height="20" rx="8" fill="#7f1d1d"/>
  <text x="976" y="600" font-family="Segoe UI, sans-serif" font-size="11" fill="#fca5a5" text-anchor="middle">DEEP-LOSS</text>
  <line x1="40" y1="614" x2="1160" y2="614" stroke="#2a3550"/>

  <!-- Row 9: USDC -->
  <text x="40" y="644" font-family="Segoe UI, sans-serif" font-size="14" font-weight="600" fill="#e6ebf5">USDC</text>
  <rect x="136" y="630" width="52" height="20" rx="10" fill="#14532d"/>
  <text x="162" y="644" font-family="Segoe UI, sans-serif" font-size="11" fill="#86efac" text-anchor="middle">stable</text>
  <text x="240" y="644" font-family="Segoe UI, sans-serif" font-size="14" fill="#e6ebf5">0.663</text>
  <text x="340" y="644" font-family="Segoe UI, sans-serif" font-size="14" fill="#e6ebf5">$1.0000</text>
  <text x="460" y="644" font-family="Segoe UI, sans-serif" font-size="14" fill="#e6ebf5">$1.0000</text>
  <text x="580" y="644" font-family="Segoe UI, sans-serif" font-size="14" fill="#e6ebf5">$0.66</text>
  <text x="700" y="644" font-family="Segoe UI, sans-serif" font-size="14" fill="#22c55e">$0.00</text>
  <text x="820" y="644" font-family="Segoe UI, sans-serif" font-size="14" fill="#22c55e">0.0%</text>
  <rect x="936" y="630" width="60" height="20" rx="8" fill="#3f3f46"/>
  <text x="966" y="644" font-family="Segoe UI, sans-serif" font-size="11" fill="#a1a1aa" text-anchor="middle">PROFIT</text>
</svg>
